<?xml version="1.0"?>
<svg xmlns="http://www.w3.org/2000/svg" height="512px" viewBox="-43 0 511 512" width="512px" class=""><g transform="matrix(0.777822 0 0 0.777822 47.2129 56.8777)"><path d="m71.332031 459.34375c1.183594 23.894531 20.902344 42.65625 44.820313 42.65625h196.574218c23.921876 0 43.636719-18.761719 44.820313-42.65625l16.972656-342.476562h-320.160156zm208.640625-47.785156 10.667969-206.011719c.488281-9.398437 8.503906-16.625 17.898437-16.136719 9.402344.484375 16.625 8.5 16.140626 17.898438l-10.667969 206.011718c-.488281 9.398438-8.5 16.625-17.902344 16.136719-9.398437-.484375-16.621094-8.5-16.136719-17.898437zm-84.199218-227.023438c0-9.410156 7.632812-17.039062 17.042968-17.039062s17.039063 7.628906 17.039063 17.039062v240.527344c0 9.410156-7.628907 17.039062-17.039063 17.039062s-17.042968-7.628906-17.042968-17.039062zm-78.683594 4.875c9.398437-.488281 17.414062 6.738282 17.898437 16.136719l10.667969 206.011719c.488281 9.398437-6.734375 17.414062-16.136719 17.898437-9.398437.488281-17.410156-6.738281-17.898437-16.136719l-10.667969-206.011718c-.484375-9.398438 6.738281-17.414063 16.136719-17.898438zm0 0" fill="#ee4e71" data-original="#EE4E71" class=""/><path d="m390.320312 67.246094h-355.011718c-13.699219 0-24.808594 11.109375-24.808594 24.8125 0 13.699218 11.109375 24.808594 24.808594 24.808594h355.015625c13.699219 0 24.808593-11.109376 24.808593-24.808594 0-13.703125-11.109374-24.8125-24.8125-24.8125zm0 0" fill="#00b7ec" data-original="#00B7EC" class="" style="fill:#080808" data-old_color="#080707"/><g fill="#d6effb"><path d="m212.816406 442.101562c9.410156 0 17.039063-7.628906 17.039063-17.039062v-240.527344c0-9.410156-7.628907-17.039062-17.039063-17.039062s-17.042968 7.628906-17.042968 17.039062v240.527344c0 9.410156 7.632812 17.039062 17.042968 17.039062zm0 0" data-original="#000000" class="active-path" style="fill:#000000"/><path d="m111.621094 413.320312c.488281 9.398438 8.5 16.625 17.898437 16.136719 9.398438-.484375 16.625-8.5 16.136719-17.898437l-10.667969-206.011719c-.484375-9.398437-8.5-16.625-17.898437-16.136719-9.398438.488282-16.625 8.5-16.136719 17.898438zm0 0" data-original="#000000" class="active-path" style="fill:#000000"/><path d="m296.109375 429.457031c9.402344.488281 17.414063-6.738281 17.902344-16.136719l10.667969-206.011718c.484374-9.398438-6.738282-17.414063-16.140626-17.898438-9.398437-.488281-17.410156 6.738282-17.898437 16.136719l-10.667969 206.011719c-.484375 9.398437 6.738282 17.414062 16.136719 17.898437zm0 0" data-original="#000000" class="active-path" style="fill:#000000"/></g><path d="m390.324219 57.246094h-94.980469v-28.800782c0-15.683593-12.757812-28.445312-28.441406-28.445312h-105.625c-15.683594 0-28.445313 12.761719-28.445313 28.445312v28.800782h-97.523437c-19.191406 0-34.808594 15.617187-34.808594 34.8125 0 19.191406 15.617188 34.808594 34.808594 34.808594h9.535156l16.503906 332.972656c1.449219 29.25 25.523438 52.160156 54.808594 52.160156h196.574219c29.285156 0 53.359375-22.910156 54.808593-52.160156l16.5-332.972656h6.285157c19.195312 0 34.8125-15.617188 34.8125-34.808594 0-19.195313-15.621094-34.8125-34.8125-34.8125zm-237.492188-28.800782c0-4.65625 3.789063-8.445312 8.445313-8.445312h105.625c4.652344 0 8.441406 3.789062 8.441406 8.445312v28.800782h-122.511719zm194.730469 430.40625c-.921875 18.585938-16.222656 33.148438-34.835938 33.148438h-196.574218c-18.613282 0-33.910156-14.5625-34.832032-33.148438l-16.453124-331.984374h299.144531zm42.761719-351.984374h-355.015625c-8.164063 0-14.808594-6.644532-14.808594-14.808594 0-8.167969 6.644531-14.8125 14.808594-14.8125h355.015625c8.164062 0 14.808593 6.644531 14.808593 14.8125 0 8.164062-6.644531 14.808594-14.808593 14.808594zm0 0" data-original="#000000" class="active-path" style="fill:#000000"/><path d="m212.816406 452.101562c14.910156 0 27.039063-12.128906 27.039063-27.039062v-118.730469c0-5.523437-4.476563-10-10-10-5.519531 0-10 4.476563-10 10v118.730469c0 3.878906-3.15625 7.039062-7.039063 7.039062-3.882812 0-7.042968-3.160156-7.042968-7.039062v-240.527344c0-3.882812 3.160156-7.039062 7.042968-7.039062 3.882813 0 7.039063 3.15625 7.039063 7.039062v41.796875c0 5.523438 4.480469 10 10 10 5.523437 0 10-4.476562 10-10v-41.796875c0-14.910156-12.128907-27.039062-27.039063-27.039062s-27.042968 12.128906-27.042968 27.039062v240.527344c0 14.910156 12.132812 27.039062 27.042968 27.039062zm0 0" data-original="#000000" class="active-path" style="fill:#000000"/><path d="m101.632812 413.839844c.375 7.210937 3.535157 13.847656 8.898438 18.683594 5.007812 4.515624 11.378906 6.957031 18.074219 6.957031.476562 0 .953125-.011719 1.429687-.035157 7.214844-.375 13.851563-3.535156 18.6875-8.898437 4.835938-5.363281 7.292969-12.292969 6.921875-19.503906l-10.667969-206.011719c-.375-7.214844-3.535156-13.851562-8.898437-18.6875s-12.300781-7.289062-19.503906-6.921875c-14.890625.773437-26.378907 13.515625-25.605469 28.402344zm15.976563-214.445313c.125-.003906.246094-.007812.371094-.007812 1.742187 0 3.402343.636719 4.707031 1.8125 1.398438 1.257812 2.21875 2.984375 2.316406 4.863281l10.667969 206.011719c.097656 1.878906-.542969 3.683593-1.804687 5.078125-1.257813 1.398437-2.984376 2.222656-4.863282 2.320312-1.875.105469-3.679687-.542968-5.078125-1.804687-1.398437-1.257813-2.222656-2.984375-2.316406-4.863281l-10.667969-206.011719c-.203125-3.878907 2.789063-7.195313 6.667969-7.398438zm0 0" data-original="#000000" class="active-path" style="fill:#000000"/><path d="m295.59375 439.445312c.476562.023438.945312.035157 1.414062.035157 14.273438 0 26.242188-11.226563 26.988282-25.640625l10.667968-206.011719c.375-7.214844-2.082031-14.140625-6.921874-19.507813-4.835938-5.363281-11.472657-8.523437-18.683594-8.894531-7.214844-.367187-14.140625 2.082031-19.503906 6.917969-5.367188 4.835938-8.527344 11.472656-8.898438 18.6875l-10.667969 206.011719c-.769531 14.890625 10.714844 27.628906 25.605469 28.402343zm-5.632812-27.371093 10.667968-206.011719c.097656-1.878906.921875-3.605469 2.316406-4.863281 1.304688-1.175781 2.964844-1.8125 4.707032-1.8125.125 0 .246094.003906.371094.007812 1.878906.097657 3.605468.921875 4.867187 2.320313 1.257813 1.394531 1.898437 3.199218 1.800781 5.078125l-10.667968 206.011719c-.199219 3.875-3.519532 6.886718-7.394532 6.664062-3.875-.199219-6.867187-3.515625-6.667968-7.394531zm0 0" data-original="#000000" class="active-path" style="fill:#000000"/><path d="m229.855469 256.347656c-5.519531 0-10 4.488282-10 10.011719s4.480469 10 10 10c5.523437 0 10-4.476563 10-10v-.027344c0-5.519531-4.476563-9.984375-10-9.984375zm0 0" data-original="#000000" class="active-path" style="fill:#000000"/></g> </svg>
